<svg width="24" height="24" viewBox="0 0 24 24" fill="none" xmlns="http://www.w3.org/2000/svg">
<g clip-path="url(#clip0_201_589)">
<rect width="24" height="24" fill="white"/>
<path d="M12.0947 23.8016C10.9522 23.6874 9.69534 23.8016 8.55279 23.3446C6.72471 22.5448 4.89662 22.5448 3.06854 23.6874C2.61151 23.9159 2.04024 24.2586 1.58322 23.6874C1.24046 23.3446 1.46897 22.7733 1.58322 22.4305C2.61152 20.1454 2.04024 18.2031 1.1262 15.918C-0.701885 11.4621 -0.473378 7.12037 3.06854 3.4642C6.61045 -0.0777111 11.0664 -0.648988 15.7509 0.60782C17.2362 1.06484 18.493 1.97886 19.6355 3.12142C25.1198 8.94843 25.3483 18.7744 16.8934 22.8876C15.2938 23.6874 13.6943 23.6874 12.0947 23.8016ZM3.06854 22.3163C5.4679 20.4882 7.753 21.745 10.0381 22.0878C13.3515 22.5448 16.5507 22.4306 19.2928 19.917C22.1492 17.1748 22.949 12.4903 21.5779 8.71992C19.8641 4.03545 15.9794 1.52185 11.6377 1.52185C6.61045 1.52185 1.35471 5.63503 1.58322 10.548C1.69748 12.4903 1.81173 14.4327 2.84003 16.1465C3.98258 17.9746 4.21109 19.8027 3.06854 22.3163Z" fill="black"/>
<path d="M12.7802 14.5468C12.8944 14.4326 13.123 14.3184 13.2372 14.2041C13.6942 13.5186 13.9227 12.6045 15.0653 12.833C16.0936 13.1758 17.0076 13.9756 17.3504 15.0039C17.6932 16.0322 17.0076 16.7177 16.3221 17.289C14.8368 18.4315 13.3515 18.0888 11.9804 17.4032C8.89551 15.6894 7.18169 12.833 6.15339 9.51962C5.81062 8.26281 6.26764 7.23451 7.52445 6.54898C8.32423 6.09196 9.00976 6.09197 9.46678 6.7775C10.1523 7.69155 11.6376 8.49132 10.3808 9.97664C9.80955 10.6622 10.0381 11.3477 10.4951 11.919C11.0664 12.9473 11.6376 13.9756 12.7802 14.5468Z" fill="black"/>
</g>
<defs>
<clipPath id="clip0_201_589">
<rect width="24" height="24" fill="white"/>
</clipPath>
</defs>
</svg>
